<svg width="1026" height="1015" viewBox="0 0 1026 1015" fill="none" xmlns="http://www.w3.org/2000/svg">
<path d="M984.583 626.011C919.234 888.125 653.755 1047.65 391.609 982.282C129.573 916.933 -29.9479 651.438 35.4323 389.339C100.75 127.193 366.229 -32.3381 628.297 33.0109C890.427 98.3598 1049.93 363.881 984.583 626.011Z" fill="#FF6501"/>
<path d="M725.725 437.948C735.464 372.844 685.896 337.844 618.115 314.495L640.105 226.302L586.417 212.927L565.016 298.792C550.902 295.276 536.407 291.958 522.001 288.672L543.563 202.24L489.912 188.859L467.907 277.021C456.225 274.359 444.761 271.729 433.626 268.964L433.688 268.688L359.657 250.203L345.376 307.542C345.376 307.542 385.204 316.667 384.365 317.234C406.105 322.661 410.037 337.047 409.376 348.453L384.334 448.927C385.829 449.307 387.771 449.859 389.912 450.714C388.126 450.271 386.214 449.781 384.24 449.307L349.136 590.052C346.475 596.656 339.73 606.563 324.532 602.802C325.068 603.583 285.516 593.063 285.516 593.063L258.865 654.51L328.725 671.927C341.719 675.188 354.459 678.594 366.995 681.807L344.777 771.005L398.402 784.385L420.402 696.13C435.048 700.109 449.271 703.776 463.183 707.234L441.256 795.073L494.938 808.453L517.157 719.417C608.699 736.74 677.532 729.755 706.506 646.958C729.855 580.297 705.344 541.844 657.183 516.766C692.256 508.677 718.678 485.604 725.725 437.948ZM603.068 609.943C586.48 676.609 474.235 640.568 437.85 631.531L467.329 513.354C503.714 522.438 620.407 540.422 603.068 609.943ZM619.673 436.984C604.537 497.625 511.115 466.813 480.813 459.26L507.537 352.078C537.844 359.63 635.438 373.729 619.673 436.984Z" fill="white"/>
</svg>
