<svg xmlns="http://www.w3.org/2000/svg" xmlns:xlink="http://www.w3.org/1999/xlink" width="398" zoomAndPan="magnify" viewBox="0 0 298.5 272.999983" height="364" preserveAspectRatio="xMidYMid meet" version="1.0"><defs><g/><clipPath id="2012055154"><path d="M 0 3 L 295 3 L 295 272.769531 L 0 272.769531 Z M 0 3 " clip-rule="nonzero"/></clipPath><clipPath id="4d2f9c01d0"><rect x="0" width="222" y="0" height="197"/></clipPath><clipPath id="757c4b35cd"><path d="M 234 0.101562 L 294.945312 0.101562 L 294.945312 61 L 234 61 Z M 234 0.101562 " clip-rule="nonzero"/></clipPath><clipPath id="d1bb08f6b2"><path d="M 0 14 L 4 14 L 4 269.769531 L 0 269.769531 Z M 0 14 " clip-rule="nonzero"/></clipPath><clipPath id="9466859753"><path d="M 267 65 L 272 65 L 272 269.769531 L 267 269.769531 Z M 267 65 " clip-rule="nonzero"/></clipPath><clipPath id="6c4ccb26d3"><path d="M 0 16 L 232 16 L 232 21 L 0 21 Z M 0 16 " clip-rule="nonzero"/></clipPath><clipPath id="d087a0a17f"><path d="M 0 265 L 274 265 L 274 269.769531 L 0 269.769531 Z M 0 265 " clip-rule="nonzero"/></clipPath><clipPath id="ff8f437f1e"><rect x="0" width="295" y="0" height="270"/></clipPath></defs><g clip-path="url(#2012055154)"><g transform="matrix(1, 0, 0, 1, 0, 3)"><g clip-path="url(#ff8f437f1e)"><g transform="matrix(1, 0, 0, 1, 28, 43)"><g clip-path="url(#4d2f9c01d0)"><g fill="#ffffff" fill-opacity="1"><g transform="translate(1.016394, 57.948206)"><g><path d="M 1.875 -0.015625 L 1.859375 -2.28125 C 3.148438 -2.332031 4.179688 -2.453125 4.953125 -2.640625 C 5.734375 -2.835938 6.335938 -3.164062 6.765625 -3.625 C 7.191406 -4.09375 7.476562 -4.742188 7.625 -5.578125 C 7.769531 -6.410156 7.835938 -7.488281 7.828125 -8.8125 L 7.609375 -35.0625 C 7.597656 -36.382812 7.535156 -37.453125 7.421875 -38.265625 C 7.304688 -39.078125 7.066406 -39.71875 6.703125 -40.1875 C 6.335938 -40.65625 5.84375 -40.972656 5.21875 -41.140625 C 4.59375 -41.304688 3.765625 -41.425781 2.734375 -41.5 L 2.71875 -43.78125 L 20.96875 -43.921875 C 26.6875 -43.960938 31.09375 -43.078125 34.1875 -41.265625 C 37.289062 -39.453125 38.851562 -36.84375 38.875 -33.4375 C 38.914062 -28.925781 35.703125 -25.71875 29.234375 -23.8125 L 29.234375 -23.578125 C 31.316406 -23.585938 33.203125 -23.304688 34.890625 -22.734375 C 36.585938 -22.171875 38.023438 -21.363281 39.203125 -20.3125 C 40.390625 -19.257812 41.3125 -18.015625 41.96875 -16.578125 C 42.625 -15.148438 42.957031 -13.582031 42.96875 -11.875 C 42.988281 -9.945312 42.539062 -8.253906 41.625 -6.796875 C 40.707031 -5.347656 39.382812 -4.128906 37.65625 -3.140625 C 34.289062 -1.210938 29.65625 -0.226562 23.75 -0.1875 Z M 24.109375 -3.65625 C 30.210938 -3.707031 33.242188 -6.476562 33.203125 -11.96875 C 33.179688 -15.34375 32.0625 -17.796875 29.84375 -19.328125 C 28.707031 -20.109375 27.234375 -20.664062 25.421875 -21 C 23.617188 -21.332031 21.410156 -21.488281 18.796875 -21.46875 L 16.078125 -21.4375 L 16.171875 -10.0625 C 16.191406 -7.71875 16.8125 -6.054688 18.03125 -5.078125 C 19.25 -4.109375 21.273438 -3.632812 24.109375 -3.65625 Z M 19.40625 -24.875 C 21.113281 -24.882812 22.585938 -25.050781 23.828125 -25.375 C 25.078125 -25.707031 26.140625 -26.1875 27.015625 -26.8125 C 28.816406 -28.070312 29.707031 -30.023438 29.6875 -32.671875 C 29.664062 -35.441406 28.96875 -37.4375 27.59375 -38.65625 C 26.21875 -39.875 24.019531 -40.472656 21 -40.453125 L 16.953125 -40.421875 C 16.273438 -40.410156 15.9375 -40.082031 15.9375 -39.4375 L 16.0625 -24.84375 Z M 19.40625 -24.875 "/></g></g></g><g fill="#ffffff" fill-opacity="1"><g transform="translate(46.298136, 57.591609)"><g><path d="M 14.515625 -9.421875 C 14.523438 -7.910156 14.59375 -6.703125 14.71875 -5.796875 C 14.84375 -4.890625 15.078125 -4.191406 15.421875 -3.703125 C 15.773438 -3.210938 16.269531 -2.882812 16.90625 -2.71875 C 17.550781 -2.550781 18.425781 -2.453125 19.53125 -2.421875 L 19.546875 -0.15625 L 1.640625 -0.015625 L 1.625 -2.28125 C 2.6875 -2.332031 3.550781 -2.460938 4.21875 -2.671875 C 4.882812 -2.890625 5.394531 -3.234375 5.75 -3.703125 C 6.101562 -4.179688 6.34375 -4.847656 6.46875 -5.703125 C 6.59375 -6.554688 6.648438 -7.644531 6.640625 -8.96875 L 6.578125 -15.953125 C 6.554688 -18.148438 6.503906 -19.957031 6.421875 -21.375 C 6.335938 -22.800781 6.238281 -23.78125 6.125 -24.3125 C 5.914062 -25.25 5.476562 -25.867188 4.8125 -26.171875 C 4.15625 -26.472656 2.957031 -26.617188 1.21875 -26.609375 L 1.203125 -28.53125 L 14.359375 -30.78125 Z M 5.90625 -42.765625 C 5.90625 -44.015625 6.328125 -45.066406 7.171875 -45.921875 C 8.015625 -46.785156 9.039062 -47.222656 10.25 -47.234375 C 11.5 -47.242188 12.554688 -46.828125 13.421875 -45.984375 C 14.285156 -45.140625 14.71875 -44.09375 14.71875 -42.84375 C 14.726562 -41.632812 14.3125 -40.597656 13.46875 -39.734375 C 12.625 -38.867188 11.578125 -38.429688 10.328125 -38.421875 C 9.117188 -38.410156 8.082031 -38.828125 7.21875 -39.671875 C 6.351562 -40.523438 5.914062 -41.554688 5.90625 -42.765625 Z M 5.90625 -42.765625 "/></g></g></g><g fill="#ffffff" fill-opacity="1"><g transform="translate(66.808439, 57.430089)"><g><path d="M 1.203125 -27 L 1.1875 -29.5625 C 3.457031 -30.21875 5.351562 -31.203125 6.875 -32.515625 C 8.40625 -33.835938 9.535156 -35.351562 10.265625 -37.0625 L 13.171875 -37.09375 L 13.234375 -30.21875 L 19.765625 -30.265625 L 19.78125 -27.140625 L 13.25 -27.09375 L 13.390625 -9.65625 C 13.410156 -7.300781 13.675781 -5.632812 14.1875 -4.65625 C 14.707031 -3.675781 15.570312 -3.1875 16.78125 -3.1875 C 18.257812 -3.207031 19.375 -3.898438 20.125 -5.265625 L 21.328125 -3.640625 C 20.285156 -0.941406 17.796875 0.421875 13.859375 0.453125 C 11.242188 0.472656 9.203125 -0.113281 7.734375 -1.3125 C 6.265625 -2.507812 5.523438 -4.207031 5.515625 -6.40625 L 5.34375 -27.03125 Z M 1.203125 -27 "/></g></g></g><g fill="#ffffff" fill-opacity="1"><g transform="translate(88.511861, 57.259173)"><g><path d="M 29.96875 -4.953125 C 28.539062 -3.347656 26.757812 -2.101562 24.625 -1.21875 C 22.488281 -0.332031 20.171875 0.117188 17.671875 0.140625 C 15.359375 0.160156 13.25 -0.1875 11.34375 -0.90625 C 9.445312 -1.632812 7.8125 -2.65625 6.4375 -3.96875 C 5.070312 -5.28125 4.007812 -6.867188 3.25 -8.734375 C 2.5 -10.609375 2.113281 -12.679688 2.09375 -14.953125 C 2.082031 -17.304688 2.46875 -19.453125 3.25 -21.390625 C 4.03125 -23.328125 5.132812 -24.988281 6.5625 -26.375 C 7.988281 -27.769531 9.703125 -28.851562 11.703125 -29.625 C 13.703125 -30.40625 15.914062 -30.800781 18.34375 -30.8125 C 20.050781 -30.832031 21.632812 -30.675781 23.09375 -30.34375 C 24.550781 -30.019531 25.800781 -29.554688 26.84375 -28.953125 C 27.894531 -28.359375 28.722656 -27.65625 29.328125 -26.84375 C 29.941406 -26.03125 30.253906 -25.148438 30.265625 -24.203125 C 30.273438 -23.109375 29.96875 -22.234375 29.34375 -21.578125 C 28.726562 -20.929688 27.890625 -20.609375 26.828125 -20.609375 C 25.953125 -20.597656 25.179688 -20.816406 24.515625 -21.265625 C 23.847656 -21.722656 23.1875 -22.457031 22.53125 -23.46875 C 21.96875 -24.375 21.484375 -25.085938 21.078125 -25.609375 C 20.679688 -26.140625 20.304688 -26.546875 19.953125 -26.828125 C 19.609375 -27.109375 19.265625 -27.296875 18.921875 -27.390625 C 18.585938 -27.484375 18.171875 -27.53125 17.671875 -27.53125 C 15.472656 -27.507812 13.773438 -26.472656 12.578125 -24.421875 C 11.390625 -22.367188 10.8125 -19.503906 10.84375 -15.828125 C 10.875 -11.890625 11.625 -8.863281 13.09375 -6.75 C 14.570312 -4.644531 16.675781 -3.601562 19.40625 -3.625 C 20.957031 -3.632812 22.503906 -3.9375 24.046875 -4.53125 C 25.597656 -5.132812 27.070312 -5.988281 28.46875 -7.09375 Z M 29.96875 -4.953125 "/></g></g></g><g fill="#ffffff" fill-opacity="1"><g transform="translate(120.55565, 57.006827)"><g><path d="M 18.40625 -30.8125 C 20.675781 -30.832031 22.828125 -30.460938 24.859375 -29.703125 C 26.890625 -28.941406 28.675781 -27.882812 30.21875 -26.53125 C 31.757812 -25.1875 32.984375 -23.582031 33.890625 -21.71875 C 34.796875 -19.851562 35.253906 -17.800781 35.265625 -15.5625 C 35.285156 -13.25 34.859375 -11.117188 33.984375 -9.171875 C 33.109375 -7.234375 31.910156 -5.554688 30.390625 -4.140625 C 28.867188 -2.734375 27.097656 -1.625 25.078125 -0.8125 C 23.054688 -0.0078125 20.910156 0.398438 18.640625 0.421875 C 16.398438 0.429688 14.273438 0.0546875 12.265625 -0.703125 C 10.253906 -1.460938 8.484375 -2.535156 6.953125 -3.921875 C 5.429688 -5.304688 4.226562 -6.96875 3.34375 -8.90625 C 2.457031 -10.851562 2.003906 -12.984375 1.984375 -15.296875 C 1.972656 -17.535156 2.394531 -19.601562 3.25 -21.5 C 4.101562 -23.394531 5.28125 -25.03125 6.78125 -26.40625 C 8.289062 -27.789062 10.046875 -28.867188 12.046875 -29.640625 C 14.046875 -30.410156 16.164062 -30.800781 18.40625 -30.8125 Z M 18.421875 -27.53125 C 17.285156 -27.53125 16.242188 -27.226562 15.296875 -26.625 C 14.359375 -26.03125 13.5625 -25.195312 12.90625 -24.125 C 12.25 -23.0625 11.742188 -21.78125 11.390625 -20.28125 C 11.046875 -18.789062 10.878906 -17.132812 10.890625 -15.3125 C 10.910156 -13.425781 11.101562 -11.722656 11.46875 -10.203125 C 11.84375 -8.691406 12.367188 -7.40625 13.046875 -6.34375 C 13.722656 -5.289062 14.523438 -4.472656 15.453125 -3.890625 C 16.390625 -3.316406 17.445312 -3.03125 18.625 -3.03125 C 19.789062 -3.039062 20.851562 -3.34375 21.8125 -3.9375 C 22.78125 -4.539062 23.597656 -5.382812 24.265625 -6.46875 C 24.941406 -7.550781 25.460938 -8.847656 25.828125 -10.359375 C 26.191406 -11.878906 26.363281 -13.566406 26.34375 -15.421875 C 26.332031 -17.242188 26.132812 -18.894531 25.75 -20.375 C 25.363281 -21.851562 24.820312 -23.128906 24.125 -24.203125 C 23.4375 -25.273438 22.601562 -26.097656 21.625 -26.671875 C 20.65625 -27.253906 19.585938 -27.539062 18.421875 -27.53125 Z M 18.421875 -27.53125 "/></g></g></g><g fill="#ffffff" fill-opacity="1"><g transform="translate(158.053719, 56.711527)"><g><path d="M 14.515625 -9.421875 C 14.523438 -7.910156 14.59375 -6.703125 14.71875 -5.796875 C 14.84375 -4.890625 15.078125 -4.191406 15.421875 -3.703125 C 15.773438 -3.210938 16.269531 -2.882812 16.90625 -2.71875 C 17.550781 -2.550781 18.425781 -2.453125 19.53125 -2.421875 L 19.546875 -0.15625 L 1.640625 -0.015625 L 1.625 -2.28125 C 2.6875 -2.332031 3.550781 -2.460938 4.21875 -2.671875 C 4.882812 -2.890625 5.394531 -3.234375 5.75 -3.703125 C 6.101562 -4.179688 6.34375 -4.847656 6.46875 -5.703125 C 6.59375 -6.554688 6.648438 -7.644531 6.640625 -8.96875 L 6.578125 -15.953125 C 6.554688 -18.148438 6.503906 -19.957031 6.421875 -21.375 C 6.335938 -22.800781 6.238281 -23.78125 6.125 -24.3125 C 5.914062 -25.25 5.476562 -25.867188 4.8125 -26.171875 C 4.15625 -26.472656 2.957031 -26.617188 1.21875 -26.609375 L 1.203125 -28.53125 L 14.359375 -30.78125 Z M 5.90625 -42.765625 C 5.90625 -44.015625 6.328125 -45.066406 7.171875 -45.921875 C 8.015625 -46.785156 9.039062 -47.222656 10.25 -47.234375 C 11.5 -47.242188 12.554688 -46.828125 13.421875 -45.984375 C 14.285156 -45.140625 14.71875 -44.09375 14.71875 -42.84375 C 14.726562 -41.632812 14.3125 -40.597656 13.46875 -39.734375 C 12.625 -38.867188 11.578125 -38.429688 10.328125 -38.421875 C 9.117188 -38.410156 8.082031 -38.828125 7.21875 -39.671875 C 6.351562 -40.523438 5.914062 -41.554688 5.90625 -42.765625 Z M 5.90625 -42.765625 "/></g></g></g><g fill="#ffffff" fill-opacity="1"><g transform="translate(178.564023, 56.550007)"><g><path d="M 14.515625 -9.375 C 14.535156 -7.820312 14.597656 -6.601562 14.703125 -5.71875 C 14.804688 -4.832031 15.019531 -4.148438 15.34375 -3.671875 C 15.664062 -3.203125 16.160156 -2.894531 16.828125 -2.75 C 17.492188 -2.601562 18.394531 -2.492188 19.53125 -2.421875 L 19.546875 -0.15625 L 1.640625 -0.015625 L 1.625 -2.28125 C 2.726562 -2.375 3.609375 -2.5 4.265625 -2.65625 C 4.929688 -2.8125 5.441406 -3.113281 5.796875 -3.5625 C 6.148438 -4.019531 6.378906 -4.664062 6.484375 -5.5 C 6.597656 -6.332031 6.648438 -7.46875 6.640625 -8.90625 L 6.578125 -16.015625 C 6.554688 -18.242188 6.503906 -20.050781 6.421875 -21.4375 C 6.335938 -22.820312 6.238281 -23.757812 6.125 -24.25 C 6 -24.738281 5.835938 -25.144531 5.640625 -25.46875 C 5.453125 -25.789062 5.171875 -26.035156 4.796875 -26.203125 C 4.421875 -26.367188 3.945312 -26.476562 3.375 -26.53125 C 2.8125 -26.582031 2.09375 -26.609375 1.21875 -26.609375 L 1.203125 -28.53125 L 12.15625 -30.765625 L 12.921875 -25.78125 L 13.140625 -25.78125 C 14.378906 -27.382812 15.847656 -28.625 17.546875 -29.5 C 19.253906 -30.382812 21.128906 -30.835938 23.171875 -30.859375 C 25.597656 -30.878906 27.5625 -30.5625 29.0625 -29.90625 C 30.5625 -29.257812 31.90625 -28.164062 33.09375 -26.625 C 33.738281 -25.75 34.3125 -24.625 34.8125 -23.25 C 35.3125 -21.875 35.570312 -19.972656 35.59375 -17.546875 L 35.65625 -9.546875 C 35.675781 -7.992188 35.734375 -6.769531 35.828125 -5.875 C 35.929688 -4.988281 36.144531 -4.3125 36.46875 -3.84375 C 36.800781 -3.375 37.289062 -3.066406 37.9375 -2.921875 C 38.582031 -2.773438 39.453125 -2.660156 40.546875 -2.578125 L 40.5625 -0.3125 L 22.78125 -0.171875 L 22.765625 -2.4375 C 23.898438 -2.488281 24.796875 -2.601562 25.453125 -2.78125 C 26.117188 -2.957031 26.617188 -3.273438 26.953125 -3.734375 C 27.296875 -4.191406 27.519531 -4.847656 27.625 -5.703125 C 27.738281 -6.554688 27.789062 -7.679688 27.78125 -9.078125 L 27.71875 -16.8125 C 27.695312 -18.738281 27.566406 -20.363281 27.328125 -21.6875 C 27.085938 -23.019531 26.707031 -24.085938 26.1875 -24.890625 C 25.675781 -25.703125 25 -26.285156 24.15625 -26.640625 C 23.320312 -26.992188 22.28125 -27.164062 21.03125 -27.15625 C 19.820312 -27.144531 18.78125 -26.789062 17.90625 -26.09375 C 17.039062 -25.40625 16.289062 -24.457031 15.65625 -23.25 C 15.332031 -22.5625 15.046875 -21.675781 14.796875 -20.59375 C 14.554688 -19.507812 14.441406 -18.378906 14.453125 -17.203125 Z M 14.515625 -9.375 "/></g></g></g><g fill="#ffffff" fill-opacity="1"><g transform="translate(1.5021, 119.624759)"><g><path d="M 16.234375 -9.265625 C 16.242188 -7.828125 16.347656 -6.664062 16.546875 -5.78125 C 16.742188 -4.894531 17.140625 -4.210938 17.734375 -3.734375 C 18.328125 -3.265625 19.160156 -2.941406 20.234375 -2.765625 C 21.316406 -2.585938 22.765625 -2.484375 24.578125 -2.453125 L 24.59375 -0.1875 L 1.984375 -0.015625 L 1.96875 -2.28125 C 3.21875 -2.332031 4.238281 -2.453125 5.03125 -2.640625 C 5.832031 -2.835938 6.4375 -3.164062 6.84375 -3.625 C 7.257812 -4.09375 7.539062 -4.742188 7.6875 -5.578125 C 7.832031 -6.410156 7.898438 -7.488281 7.890625 -8.8125 L 7.671875 -35.0625 C 7.660156 -36.382812 7.585938 -37.453125 7.453125 -38.265625 C 7.316406 -39.078125 7.054688 -39.71875 6.671875 -40.1875 C 6.285156 -40.65625 5.738281 -40.972656 5.03125 -41.140625 C 4.332031 -41.304688 3.414062 -41.421875 2.28125 -41.484375 L 2.265625 -43.765625 L 37.03125 -44.046875 L 37.8125 -32.0625 L 35.421875 -32.046875 C 35.191406 -33.671875 34.851562 -35.035156 34.40625 -36.140625 C 33.957031 -37.253906 33.332031 -38.160156 32.53125 -38.859375 C 31.726562 -39.554688 30.703125 -40.050781 29.453125 -40.34375 C 28.203125 -40.632812 26.671875 -40.773438 24.859375 -40.765625 L 17.015625 -40.703125 C 16.335938 -40.691406 16 -40.363281 16 -39.71875 L 16.125 -23.296875 C 18.425781 -23.316406 20.304688 -23.425781 21.765625 -23.625 C 23.222656 -23.832031 24.382812 -24.210938 25.25 -24.765625 C 26.125 -25.316406 26.742188 -26.066406 27.109375 -27.015625 C 27.484375 -27.972656 27.742188 -29.226562 27.890625 -30.78125 L 29.984375 -30.796875 L 30.125 -13.015625 L 28.03125 -13 C 27.78125 -14.59375 27.441406 -15.867188 27.015625 -16.828125 C 26.597656 -17.785156 25.957031 -18.515625 25.09375 -19.015625 C 24.238281 -19.523438 23.09375 -19.867188 21.65625 -20.046875 C 20.21875 -20.234375 18.382812 -20.316406 16.15625 -20.296875 Z M 16.234375 -9.265625 "/></g></g></g><g fill="#ffffff" fill-opacity="1"><g transform="translate(38.488813, 119.333486)"><g><path d="M 18.40625 -30.8125 C 20.675781 -30.832031 22.828125 -30.460938 24.859375 -29.703125 C 26.890625 -28.941406 28.675781 -27.882812 30.21875 -26.53125 C 31.757812 -25.1875 32.984375 -23.582031 33.890625 -21.71875 C 34.796875 -19.851562 35.253906 -17.800781 35.265625 -15.5625 C 35.285156 -13.25 34.859375 -11.117188 33.984375 -9.171875 C 33.109375 -7.234375 31.910156 -5.554688 30.390625 -4.140625 C 28.867188 -2.734375 27.097656 -1.625 25.078125 -0.8125 C 23.054688 -0.0078125 20.910156 0.398438 18.640625 0.421875 C 16.398438 0.429688 14.273438 0.0546875 12.265625 -0.703125 C 10.253906 -1.460938 8.484375 -2.535156 6.953125 -3.921875 C 5.429688 -5.304688 4.226562 -6.96875 3.34375 -8.90625 C 2.457031 -10.851562 2.003906 -12.984375 1.984375 -15.296875 C 1.972656 -17.535156 2.394531 -19.601562 3.25 -21.5 C 4.101562 -23.394531 5.28125 -25.03125 6.78125 -26.40625 C 8.289062 -27.789062 10.046875 -28.867188 12.046875 -29.640625 C 14.046875 -30.410156 16.164062 -30.800781 18.40625 -30.8125 Z M 18.421875 -27.53125 C 17.285156 -27.53125 16.242188 -27.226562 15.296875 -26.625 C 14.359375 -26.03125 13.5625 -25.195312 12.90625 -24.125 C 12.25 -23.0625 11.742188 -21.78125 11.390625 -20.28125 C 11.046875 -18.789062 10.878906 -17.132812 10.890625 -15.3125 C 10.910156 -13.425781 11.101562 -11.722656 11.46875 -10.203125 C 11.84375 -8.691406 12.367188 -7.40625 13.046875 -6.34375 C 13.722656 -5.289062 14.523438 -4.472656 15.453125 -3.890625 C 16.390625 -3.316406 17.445312 -3.03125 18.625 -3.03125 C 19.789062 -3.039062 20.851562 -3.34375 21.8125 -3.9375 C 22.78125 -4.539062 23.597656 -5.382812 24.265625 -6.46875 C 24.941406 -7.550781 25.460938 -8.847656 25.828125 -10.359375 C 26.191406 -11.878906 26.363281 -13.566406 26.34375 -15.421875 C 26.332031 -17.242188 26.132812 -18.894531 25.75 -20.375 C 25.363281 -21.851562 24.820312 -23.128906 24.125 -24.203125 C 23.4375 -25.273438 22.601562 -26.097656 21.625 -26.671875 C 20.65625 -27.253906 19.585938 -27.539062 18.421875 -27.53125 Z M 18.421875 -27.53125 "/></g></g></g><g fill="#ffffff" fill-opacity="1"><g transform="translate(75.986868, 119.038187)"><g><path d="M 14.59375 -8.921875 C 14.601562 -7.441406 14.675781 -6.273438 14.8125 -5.421875 C 14.957031 -4.578125 15.238281 -3.925781 15.65625 -3.46875 C 16.082031 -3.019531 16.691406 -2.726562 17.484375 -2.59375 C 18.273438 -2.46875 19.335938 -2.410156 20.671875 -2.421875 L 20.6875 -0.15625 L 1.703125 -0.015625 L 1.6875 -2.28125 C 2.820312 -2.375 3.726562 -2.5 4.40625 -2.65625 C 5.09375 -2.8125 5.601562 -3.113281 5.9375 -3.5625 C 6.28125 -4.019531 6.492188 -4.675781 6.578125 -5.53125 C 6.671875 -6.382812 6.710938 -7.53125 6.703125 -8.96875 L 6.640625 -15.890625 C 6.617188 -18.242188 6.546875 -20.117188 6.421875 -21.515625 C 6.296875 -22.921875 6.039062 -24 5.65625 -24.75 C 5.269531 -25.507812 4.726562 -26.007812 4.03125 -26.25 C 3.332031 -26.5 2.414062 -26.617188 1.28125 -26.609375 L 1.265625 -28.59375 L 12.609375 -30.765625 L 13.5625 -24.25 L 13.78125 -24.25 C 14.789062 -26.269531 16.125 -27.867188 17.78125 -29.046875 C 19.445312 -30.234375 21.207031 -30.835938 23.0625 -30.859375 C 24.5 -30.867188 25.671875 -30.515625 26.578125 -29.796875 C 27.492188 -29.085938 27.953125 -28.1875 27.953125 -27.09375 C 27.960938 -25.875 27.625 -24.84375 26.9375 -24 C 26.25 -23.164062 25.300781 -22.742188 24.09375 -22.734375 C 23.519531 -22.734375 23.003906 -22.84375 22.546875 -23.0625 C 22.085938 -23.289062 21.675781 -23.546875 21.3125 -23.828125 C 20.957031 -24.117188 20.597656 -24.382812 20.234375 -24.625 C 19.867188 -24.863281 19.492188 -24.984375 19.109375 -24.984375 C 18.390625 -24.972656 17.710938 -24.488281 17.078125 -23.53125 C 16.453125 -22.582031 15.9375 -21.3125 15.53125 -19.71875 C 15.226562 -18.582031 14.988281 -17.300781 14.8125 -15.875 C 14.632812 -14.457031 14.550781 -13.046875 14.5625 -11.640625 Z M 14.59375 -8.921875 "/></g></g></g><g fill="#ffffff" fill-opacity="1"><g transform="translate(104.280859, 118.81537)"><g><path d="M 26.265625 -21 C 26.242188 -22.507812 26.191406 -23.707031 26.109375 -24.59375 C 26.023438 -25.488281 25.8125 -26.171875 25.46875 -26.640625 C 25.125 -27.117188 24.617188 -27.441406 23.953125 -27.609375 C 23.285156 -27.773438 22.382812 -27.910156 21.25 -28.015625 L 21.234375 -30.28125 L 34.078125 -30.375 L 34.21875 -13.15625 C 34.226562 -10.851562 34.265625 -9.046875 34.328125 -7.734375 C 34.398438 -6.429688 34.519531 -5.457031 34.6875 -4.8125 C 34.800781 -4.332031 34.9375 -3.945312 35.09375 -3.65625 C 35.25 -3.375 35.492188 -3.144531 35.828125 -2.96875 C 36.171875 -2.800781 36.632812 -2.691406 37.21875 -2.640625 C 37.8125 -2.585938 38.582031 -2.566406 39.53125 -2.578125 L 39.546875 -0.375 L 28.234375 0.40625 L 27.578125 -4.65625 L 27.359375 -4.65625 C 26.378906 -3.050781 25 -1.804688 23.21875 -0.921875 C 21.445312 -0.0351562 19.460938 0.410156 17.265625 0.421875 C 13.210938 0.453125 10.117188 -0.957031 7.984375 -3.8125 C 6.328125 -6 5.484375 -9.117188 5.453125 -13.171875 L 5.40625 -20.84375 C 5.382812 -22.394531 5.332031 -23.613281 5.25 -24.5 C 5.175781 -25.394531 4.972656 -26.066406 4.640625 -26.515625 C 4.316406 -26.960938 3.832031 -27.269531 3.1875 -27.4375 C 2.539062 -27.601562 1.648438 -27.738281 0.515625 -27.84375 L 0.5 -30.109375 L 13.234375 -30.21875 L 13.359375 -14.140625 C 13.390625 -10.316406 13.882812 -7.546875 14.84375 -5.828125 C 15.800781 -4.109375 17.320312 -3.257812 19.40625 -3.28125 C 21.632812 -3.289062 23.347656 -4.320312 24.546875 -6.375 C 25.742188 -8.351562 26.328125 -11.257812 26.296875 -15.09375 Z M 26.265625 -21 "/></g></g></g><g fill="#ffffff" fill-opacity="1"><g transform="translate(144.562862, 118.498146)"><g><path d="M 14.578125 -9.484375 C 14.585938 -7.890625 14.632812 -6.640625 14.71875 -5.734375 C 14.8125 -4.835938 15.03125 -4.148438 15.375 -3.671875 C 15.71875 -3.203125 16.210938 -2.894531 16.859375 -2.75 C 17.503906 -2.601562 18.394531 -2.492188 19.53125 -2.421875 L 19.546875 -0.15625 L 1.59375 -0.015625 L 1.578125 -2.28125 C 2.710938 -2.375 3.617188 -2.5 4.296875 -2.65625 C 4.984375 -2.8125 5.492188 -3.113281 5.828125 -3.5625 C 6.160156 -4.019531 6.378906 -4.675781 6.484375 -5.53125 C 6.597656 -6.382812 6.648438 -7.53125 6.640625 -8.96875 L 6.578125 -16.015625 C 6.554688 -18.171875 6.507812 -19.96875 6.4375 -21.40625 C 6.375 -22.84375 6.269531 -23.828125 6.125 -24.359375 C 6 -24.847656 5.847656 -25.234375 5.671875 -25.515625 C 5.503906 -25.804688 5.238281 -26.035156 4.875 -26.203125 C 4.519531 -26.367188 4.054688 -26.476562 3.484375 -26.53125 C 2.921875 -26.582031 2.1875 -26.609375 1.28125 -26.609375 L 1.265625 -28.53125 L 12.203125 -30.765625 L 12.921875 -25.84375 L 13.265625 -25.84375 C 14.835938 -27.632812 16.425781 -28.910156 18.03125 -29.671875 C 19.644531 -30.441406 21.507812 -30.835938 23.625 -30.859375 C 26.125 -30.878906 28.191406 -30.457031 29.828125 -29.59375 C 31.460938 -28.738281 32.703125 -27.503906 33.546875 -25.890625 L 33.765625 -25.890625 C 35.117188 -27.492188 36.738281 -28.742188 38.625 -29.640625 C 40.519531 -30.546875 42.546875 -31.007812 44.703125 -31.03125 C 46.972656 -31.039062 48.953125 -30.769531 50.640625 -30.21875 C 52.328125 -29.664062 53.648438 -28.867188 54.609375 -27.828125 C 55.367188 -26.953125 55.9375 -25.816406 56.3125 -24.421875 C 56.6875 -23.023438 56.882812 -21.078125 56.90625 -18.578125 L 56.96875 -9.828125 C 56.976562 -8.273438 57.035156 -7.039062 57.140625 -6.125 C 57.242188 -5.21875 57.46875 -4.519531 57.8125 -4.03125 C 58.15625 -3.539062 58.648438 -3.222656 59.296875 -3.078125 C 59.941406 -2.929688 60.832031 -2.820312 61.96875 -2.75 L 61.984375 -0.484375 L 44.03125 -0.34375 L 44.015625 -2.609375 C 45.148438 -2.660156 46.046875 -2.773438 46.703125 -2.953125 C 47.367188 -3.128906 47.878906 -3.457031 48.234375 -3.9375 C 48.585938 -4.414062 48.8125 -5.070312 48.90625 -5.90625 C 49 -6.738281 49.039062 -7.875 49.03125 -9.3125 L 48.96875 -16.75 C 48.945312 -18.71875 48.816406 -20.378906 48.578125 -21.734375 C 48.335938 -23.097656 47.96875 -24.195312 47.46875 -25.03125 C 46.96875 -25.863281 46.304688 -26.453125 45.484375 -26.796875 C 44.671875 -27.148438 43.675781 -27.328125 42.5 -27.328125 C 41.175781 -27.316406 40.085938 -26.984375 39.234375 -26.328125 C 38.390625 -25.671875 37.691406 -24.832031 37.140625 -23.8125 C 36.160156 -22.019531 35.679688 -19.800781 35.703125 -17.15625 L 35.765625 -9.65625 C 35.773438 -8.101562 35.820312 -6.867188 35.90625 -5.953125 C 36 -5.046875 36.21875 -4.347656 36.5625 -3.859375 C 36.90625 -3.378906 37.410156 -3.066406 38.078125 -2.921875 C 38.742188 -2.773438 39.660156 -2.664062 40.828125 -2.59375 L 40.84375 -0.328125 L 22.84375 -0.1875 L 22.828125 -2.453125 C 23.960938 -2.535156 24.859375 -2.65625 25.515625 -2.8125 C 26.179688 -2.96875 26.691406 -3.273438 27.046875 -3.734375 C 27.398438 -4.191406 27.617188 -4.847656 27.703125 -5.703125 C 27.796875 -6.554688 27.835938 -7.703125 27.828125 -9.140625 L 27.765625 -16.578125 C 27.742188 -18.546875 27.613281 -20.210938 27.375 -21.578125 C 27.144531 -22.941406 26.769531 -24.035156 26.25 -24.859375 C 25.726562 -25.691406 25.046875 -26.285156 24.203125 -26.640625 C 23.367188 -26.992188 22.332031 -27.164062 21.09375 -27.15625 C 19.84375 -27.144531 18.8125 -26.832031 18 -26.21875 C 17.1875 -25.613281 16.519531 -24.796875 16 -23.765625 C 15.519531 -22.847656 15.148438 -21.800781 14.890625 -20.625 C 14.640625 -19.445312 14.515625 -18.234375 14.515625 -16.984375 Z M 14.578125 -9.484375 "/></g></g></g><g fill="#ffffff" fill-opacity="1"><g transform="translate(1.987807, 181.301312)"><g><path d="M 22.328125 -0.171875 L 2.046875 -0.015625 L 2.03125 -2.28125 C 3.320312 -2.332031 4.351562 -2.460938 5.125 -2.671875 C 5.90625 -2.890625 6.5 -3.285156 6.90625 -3.859375 C 7.320312 -4.429688 7.597656 -5.238281 7.734375 -6.28125 C 7.878906 -7.320312 7.945312 -8.734375 7.9375 -10.515625 L 7.75 -33.359375 C 7.738281 -34.941406 7.660156 -36.253906 7.515625 -37.296875 C 7.367188 -38.335938 7.109375 -39.160156 6.734375 -39.765625 C 6.359375 -40.367188 5.816406 -40.789062 5.109375 -41.03125 C 4.398438 -41.269531 3.457031 -41.421875 2.28125 -41.484375 L 2.265625 -43.765625 L 21.421875 -43.921875 L 21.4375 -41.640625 C 20.257812 -41.554688 19.320312 -41.390625 18.625 -41.140625 C 17.925781 -40.890625 17.390625 -40.457031 17.015625 -39.84375 C 16.640625 -39.226562 16.390625 -38.398438 16.265625 -37.359375 C 16.140625 -36.316406 16.082031 -35.003906 16.09375 -33.421875 L 16.28125 -10.578125 C 16.289062 -8.796875 16.367188 -7.382812 16.515625 -6.34375 C 16.660156 -5.300781 16.953125 -4.5 17.390625 -3.9375 C 17.828125 -3.375 18.429688 -2.988281 19.203125 -2.78125 C 19.984375 -2.582031 21.019531 -2.46875 22.3125 -2.4375 Z M 22.328125 -0.171875 "/></g></g></g><g fill="#ffffff" fill-opacity="1"><g transform="translate(26.361547, 181.109367)"><g><path d="M 14.515625 -9.375 C 14.535156 -7.820312 14.597656 -6.601562 14.703125 -5.71875 C 14.804688 -4.832031 15.019531 -4.148438 15.34375 -3.671875 C 15.664062 -3.203125 16.160156 -2.894531 16.828125 -2.75 C 17.492188 -2.601562 18.394531 -2.492188 19.53125 -2.421875 L 19.546875 -0.15625 L 1.640625 -0.015625 L 1.625 -2.28125 C 2.726562 -2.375 3.609375 -2.5 4.265625 -2.65625 C 4.929688 -2.8125 5.441406 -3.113281 5.796875 -3.5625 C 6.148438 -4.019531 6.378906 -4.664062 6.484375 -5.5 C 6.597656 -6.332031 6.648438 -7.46875 6.640625 -8.90625 L 6.578125 -16.015625 C 6.554688 -18.242188 6.503906 -20.050781 6.421875 -21.4375 C 6.335938 -22.820312 6.238281 -23.757812 6.125 -24.25 C 6 -24.738281 5.835938 -25.144531 5.640625 -25.46875 C 5.453125 -25.789062 5.171875 -26.035156 4.796875 -26.203125 C 4.421875 -26.367188 3.945312 -26.476562 3.375 -26.53125 C 2.8125 -26.582031 2.09375 -26.609375 1.21875 -26.609375 L 1.203125 -28.53125 L 12.15625 -30.765625 L 12.921875 -25.78125 L 13.140625 -25.78125 C 14.378906 -27.382812 15.847656 -28.625 17.546875 -29.5 C 19.253906 -30.382812 21.128906 -30.835938 23.171875 -30.859375 C 25.597656 -30.878906 27.5625 -30.5625 29.0625 -29.90625 C 30.5625 -29.257812 31.90625 -28.164062 33.09375 -26.625 C 33.738281 -25.75 34.3125 -24.625 34.8125 -23.25 C 35.3125 -21.875 35.570312 -19.972656 35.59375 -17.546875 L 35.65625 -9.546875 C 35.675781 -7.992188 35.734375 -6.769531 35.828125 -5.875 C 35.929688 -4.988281 36.144531 -4.3125 36.46875 -3.84375 C 36.800781 -3.375 37.289062 -3.066406 37.9375 -2.921875 C 38.582031 -2.773438 39.453125 -2.660156 40.546875 -2.578125 L 40.5625 -0.3125 L 22.78125 -0.171875 L 22.765625 -2.4375 C 23.898438 -2.488281 24.796875 -2.601562 25.453125 -2.78125 C 26.117188 -2.957031 26.617188 -3.273438 26.953125 -3.734375 C 27.296875 -4.191406 27.519531 -4.847656 27.625 -5.703125 C 27.738281 -6.554688 27.789062 -7.679688 27.78125 -9.078125 L 27.71875 -16.8125 C 27.695312 -18.738281 27.566406 -20.363281 27.328125 -21.6875 C 27.085938 -23.019531 26.707031 -24.085938 26.1875 -24.890625 C 25.675781 -25.703125 25 -26.285156 24.15625 -26.640625 C 23.320312 -26.992188 22.28125 -27.164062 21.03125 -27.15625 C 19.820312 -27.144531 18.78125 -26.789062 17.90625 -26.09375 C 17.039062 -25.40625 16.289062 -24.457031 15.65625 -23.25 C 15.332031 -22.5625 15.046875 -21.675781 14.796875 -20.59375 C 14.554688 -19.507812 14.441406 -18.378906 14.453125 -17.203125 Z M 14.515625 -9.375 "/></g></g></g><g fill="#ffffff" fill-opacity="1"><g transform="translate(67.666223, 180.78409)"><g><path d="M 27.296875 -3.859375 L 27.0625 -3.859375 C 24.46875 -1.035156 21.09375 0.390625 16.9375 0.421875 C 14.769531 0.441406 12.785156 0.0820312 10.984375 -0.65625 C 9.179688 -1.394531 7.617188 -2.441406 6.296875 -3.796875 C 4.984375 -5.148438 3.957031 -6.757812 3.21875 -8.625 C 2.488281 -10.5 2.117188 -12.570312 2.109375 -14.84375 C 2.085938 -17.113281 2.4375 -19.21875 3.15625 -21.15625 C 3.882812 -23.09375 4.875 -24.773438 6.125 -26.203125 C 7.382812 -27.640625 8.890625 -28.757812 10.640625 -29.5625 C 12.398438 -30.375 14.304688 -30.785156 16.359375 -30.796875 C 18.253906 -30.816406 19.925781 -30.546875 21.375 -29.984375 C 22.832031 -29.429688 24.117188 -28.476562 25.234375 -27.125 L 25.453125 -27.125 L 25.421875 -31.96875 C 25.398438 -34.195312 25.359375 -36.113281 25.296875 -37.71875 C 25.234375 -39.332031 25.144531 -40.382812 25.03125 -40.875 C 24.820312 -41.675781 24.234375 -42.25 23.265625 -42.59375 C 22.296875 -42.945312 20.804688 -43.117188 18.796875 -43.109375 L 18.78125 -45.03125 L 33.140625 -47.421875 L 33.40625 -14.921875 C 33.425781 -12.078125 33.46875 -9.890625 33.53125 -8.359375 C 33.601562 -6.828125 33.722656 -5.664062 33.890625 -4.875 C 33.960938 -4.375 34.078125 -3.972656 34.234375 -3.671875 C 34.390625 -3.367188 34.617188 -3.132812 34.921875 -2.96875 C 35.222656 -2.800781 35.628906 -2.691406 36.140625 -2.640625 C 36.648438 -2.585938 37.304688 -2.5625 38.109375 -2.5625 L 38.125 -0.359375 L 27.328125 0.34375 Z M 25.4375 -16.515625 C 25.425781 -17.953125 25.265625 -19.28125 24.953125 -20.5 C 24.640625 -21.726562 24.175781 -22.816406 23.5625 -23.765625 C 22.863281 -24.847656 21.984375 -25.671875 20.921875 -26.234375 C 19.859375 -26.796875 18.71875 -27.070312 17.5 -27.0625 C 15.269531 -27.039062 13.578125 -26.003906 12.421875 -23.953125 C 11.265625 -21.898438 10.695312 -18.921875 10.71875 -15.015625 C 10.75 -11.078125 11.363281 -8.050781 12.5625 -5.9375 C 13.757812 -3.832031 15.457031 -2.789062 17.65625 -2.8125 C 18.90625 -2.820312 20.09375 -3.15625 21.21875 -3.8125 C 22.351562 -4.46875 23.273438 -5.34375 23.984375 -6.4375 C 24.503906 -7.28125 24.878906 -8.316406 25.109375 -9.546875 C 25.347656 -10.773438 25.460938 -12.359375 25.453125 -14.296875 Z M 25.4375 -16.515625 "/></g></g></g><g fill="#ffffff" fill-opacity="1"><g transform="translate(107.096, 180.473578)"><g><path d="M 14.515625 -9.421875 C 14.523438 -7.910156 14.59375 -6.703125 14.71875 -5.796875 C 14.84375 -4.890625 15.078125 -4.191406 15.421875 -3.703125 C 15.773438 -3.210938 16.269531 -2.882812 16.90625 -2.71875 C 17.550781 -2.550781 18.425781 -2.453125 19.53125 -2.421875 L 19.546875 -0.15625 L 1.640625 -0.015625 L 1.625 -2.28125 C 2.6875 -2.332031 3.550781 -2.460938 4.21875 -2.671875 C 4.882812 -2.890625 5.394531 -3.234375 5.75 -3.703125 C 6.101562 -4.179688 6.34375 -4.847656 6.46875 -5.703125 C 6.59375 -6.554688 6.648438 -7.644531 6.640625 -8.96875 L 6.578125 -15.953125 C 6.554688 -18.148438 6.503906 -19.957031 6.421875 -21.375 C 6.335938 -22.800781 6.238281 -23.78125 6.125 -24.3125 C 5.914062 -25.25 5.476562 -25.867188 4.8125 -26.171875 C 4.15625 -26.472656 2.957031 -26.617188 1.21875 -26.609375 L 1.203125 -28.53125 L 14.359375 -30.78125 Z M 5.90625 -42.765625 C 5.90625 -44.015625 6.328125 -45.066406 7.171875 -45.921875 C 8.015625 -46.785156 9.039062 -47.222656 10.25 -47.234375 C 11.5 -47.242188 12.554688 -46.828125 13.421875 -45.984375 C 14.285156 -45.140625 14.71875 -44.09375 14.71875 -42.84375 C 14.726562 -41.632812 14.3125 -40.597656 13.46875 -39.734375 C 12.625 -38.867188 11.578125 -38.429688 10.328125 -38.421875 C 9.117188 -38.410156 8.082031 -38.828125 7.21875 -39.671875 C 6.351562 -40.523438 5.914062 -41.554688 5.90625 -42.765625 Z M 5.90625 -42.765625 "/></g></g></g><g fill="#ffffff" fill-opacity="1"><g transform="translate(127.606296, 180.312058)"><g><path d="M 19.421875 -16.34375 C 16.242188 -14.875 13.851562 -13.519531 12.25 -12.28125 C 10.65625 -11.039062 9.863281 -9.753906 9.875 -8.421875 C 9.882812 -7.328125 10.195312 -6.457031 10.8125 -5.8125 C 11.425781 -5.175781 12.1875 -4.863281 13.09375 -4.875 C 14 -4.875 14.847656 -5.039062 15.640625 -5.375 C 16.429688 -5.707031 17.109375 -6.140625 17.671875 -6.671875 C 18.234375 -7.203125 18.671875 -7.835938 18.984375 -8.578125 C 19.304688 -9.328125 19.46875 -10.117188 19.46875 -10.953125 Z M 19.390625 -19.359375 L 19.375 -21.75 C 19.351562 -23.945312 18.953125 -25.539062 18.171875 -26.53125 C 17.390625 -27.53125 16.179688 -28.019531 14.546875 -28 C 13.453125 -28 12.625 -27.703125 12.0625 -27.109375 C 11.5 -26.523438 10.976562 -25.546875 10.5 -24.171875 C 10.164062 -23.222656 9.6875 -22.476562 9.0625 -21.9375 C 8.4375 -21.40625 7.570312 -21.132812 6.46875 -21.125 C 5.414062 -21.125 4.601562 -21.441406 4.03125 -22.078125 C 3.457031 -22.722656 3.171875 -23.628906 3.171875 -24.796875 C 3.148438 -26.617188 4.128906 -28.066406 6.109375 -29.140625 C 8.085938 -30.210938 11.085938 -30.765625 15.109375 -30.796875 C 19.347656 -30.828125 22.378906 -30.082031 24.203125 -28.5625 C 26.035156 -27.050781 26.96875 -24.5 27 -20.90625 L 27.09375 -8.453125 C 27.113281 -5.234375 27.769531 -3.628906 29.0625 -3.640625 C 29.78125 -3.640625 30.441406 -3.890625 31.046875 -4.390625 L 31.90625 -2.75 C 31.382812 -1.800781 30.566406 -1.046875 29.453125 -0.484375 C 28.335938 0.0664062 27.078125 0.347656 25.671875 0.359375 C 23.929688 0.367188 22.601562 -0.144531 21.6875 -1.1875 C 20.78125 -2.238281 20.316406 -3.734375 20.296875 -5.671875 L 20.015625 -5.671875 C 18.929688 -3.691406 17.519531 -2.179688 15.78125 -1.140625 C 14.050781 -0.109375 12.066406 0.414062 9.828125 0.4375 C 7.441406 0.457031 5.523438 -0.195312 4.078125 -1.53125 C 2.628906 -2.863281 1.898438 -4.613281 1.890625 -6.78125 C 1.867188 -8.445312 2.585938 -10.015625 4.046875 -11.484375 C 5.515625 -12.953125 7.96875 -14.398438 11.40625 -15.828125 Z M 19.390625 -19.359375 "/></g></g></g><g fill="#ffffff" fill-opacity="1"><g transform="translate(160.218251, 180.055237)"><g><path d="M 3.03125 -3.671875 C 3.019531 -4.878906 3.421875 -5.910156 4.234375 -6.765625 C 5.046875 -7.628906 6.054688 -8.066406 7.265625 -8.078125 C 8.515625 -8.085938 9.554688 -7.664062 10.390625 -6.8125 C 11.234375 -5.96875 11.660156 -4.941406 11.671875 -3.734375 C 11.679688 -2.554688 11.269531 -1.554688 10.4375 -0.734375 C 9.613281 0.078125 8.578125 0.488281 7.328125 0.5 C 6.117188 0.507812 5.101562 0.113281 4.28125 -0.6875 C 3.457031 -1.5 3.039062 -2.492188 3.03125 -3.671875 Z M 3.03125 -3.671875 "/></g></g></g></g></g><path stroke-linecap="butt" transform="matrix(0.748775, 0, 0, 0.748775, 30.08514, 234.793478)" fill="none" stroke-linejoin="miter" d="M 0.00106561 2.498191 L 292.661202 2.498191 " stroke="#ff6501" stroke-width="5" stroke-opacity="1" stroke-miterlimit="4"/><g clip-path="url(#757c4b35cd)"><path fill="#ff6501" d="M 293.972656 37.804688 C 289.941406 53.96875 273.574219 63.804688 257.410156 59.773438 C 241.253906 55.742188 231.417969 39.375 235.449219 23.210938 C 239.476562 7.050781 255.84375 -2.789062 272.003906 1.242188 C 288.167969 5.269531 298 21.644531 293.972656 37.804688 Z M 293.972656 37.804688 " fill-opacity="1" fill-rule="nonzero"/></g><path fill="#ffffff" d="M 278.011719 26.210938 C 278.613281 22.195312 275.554688 20.039062 271.375 18.597656 L 272.730469 13.160156 L 269.421875 12.335938 L 268.101562 17.628906 C 267.230469 17.414062 266.335938 17.207031 265.449219 17.003906 L 266.777344 11.675781 L 263.472656 10.851562 L 262.113281 16.289062 C 261.394531 16.125 260.6875 15.960938 260 15.789062 L 260.003906 15.773438 L 255.4375 14.632812 L 254.558594 18.167969 C 254.558594 18.167969 257.015625 18.730469 256.964844 18.765625 C 258.304688 19.101562 258.546875 19.988281 258.503906 20.691406 L 256.960938 26.886719 C 257.054688 26.910156 257.171875 26.945312 257.304688 26.996094 C 257.195312 26.96875 257.078125 26.9375 256.957031 26.910156 L 254.789062 35.589844 C 254.625 35.996094 254.210938 36.605469 253.273438 36.375 C 253.308594 36.421875 250.867188 35.773438 250.867188 35.773438 L 249.226562 39.5625 L 253.53125 40.636719 C 254.332031 40.835938 255.117188 41.046875 255.890625 41.246094 L 254.523438 46.746094 L 257.828125 47.570312 L 259.183594 42.128906 C 260.089844 42.375 260.964844 42.601562 261.824219 42.8125 L 260.472656 48.230469 L 263.78125 49.054688 L 265.152344 43.566406 C 270.796875 44.632812 275.039062 44.203125 276.824219 39.097656 C 278.265625 34.988281 276.753906 32.617188 273.785156 31.070312 C 275.949219 30.570312 277.578125 29.148438 278.011719 26.210938 Z M 270.449219 36.816406 C 269.425781 40.925781 262.503906 38.703125 260.261719 38.144531 L 262.078125 30.859375 C 264.320312 31.417969 271.515625 32.527344 270.449219 36.816406 Z M 271.472656 26.148438 C 270.539062 29.890625 264.777344 27.988281 262.910156 27.523438 L 264.558594 20.914062 C 266.425781 21.382812 272.445312 22.25 271.472656 26.148438 Z M 271.472656 26.148438 " fill-opacity="1" fill-rule="nonzero"/><g clip-path="url(#d1bb08f6b2)"><path stroke-linecap="butt" transform="matrix(0, 0.748775, -0.748775, 0, 3.877966, 16.630525)" fill="none" stroke-linejoin="miter" d="M -0.00216226 2.497616 L 337.371606 2.497616 " stroke="#ff6501" stroke-width="5" stroke-opacity="1" stroke-miterlimit="4"/></g><g clip-path="url(#9466859753)"><path stroke-linecap="butt" transform="matrix(0.00000000130686, 0.748775, -0.748775, 0.00000000130686, 271.531256, 67.291932)" fill="none" stroke-linejoin="miter" d="M 0.00138479 2.49888 L 269.707376 2.49888 " stroke="#ff6501" stroke-width="5" stroke-opacity="1" stroke-miterlimit="4"/></g><g clip-path="url(#6c4ccb26d3)"><path stroke-linecap="butt" transform="matrix(-0.748775, 0, 0, -0.748775, 229.93888, 20.508489)" fill="none" stroke-linejoin="miter" d="M 0.00184348 2.499775 L 306.872683 2.499775 " stroke="#ff6501" stroke-width="5" stroke-opacity="1" stroke-miterlimit="4"/></g><g clip-path="url(#d087a0a17f)"><path stroke-linecap="butt" transform="matrix(-0.748775, 0, 0, -0.748775, 271.671412, 269.102839)" fill="none" stroke-linejoin="miter" d="M -0.000618783 2.500576 L 362.591409 2.500576 " stroke="#ff6501" stroke-width="5" stroke-opacity="1" stroke-miterlimit="4"/></g></g></g></g></svg>